<svg width="94" height="30" viewBox="0 0 94 30" fill="none" xmlns="http://www.w3.org/2000/svg">
<path d="M12.3861 13.3613L5.38874 2.77311L10.0536 0.084034L14.9598 11.9328L19.866 -1.90735e-06L24.6113 2.77311L17.6139 13.3613L30 12.1849V17.6471L17.6139 16.6387L24.6917 27.1429L19.7855 30L14.8794 18.1513L10.134 30L5.38874 27.2269L12.3861 16.5546L0 17.6471V12.1008L12.3861 13.3613Z" fill="#EAA738"/>
<path fill-rule="evenodd" clip-rule="evenodd" d="M36.1667 25.6364C39.1296 28.5455 42.7407 30 47 30C51.0741 30 54.5926 28.5455 57.5556 25.6364C60.5185 22.7273 62 19.1818 62 15C62 10.8182 60.5185 7.27273 57.5556 4.36364C54.5926 1.45455 51.0741 0 47 0C42.7407 0 39.1296 1.45455 36.1667 4.36364C33.3889 7.27273 32 10.8182 32 15C32 19.1818 33.3889 22.7273 36.1667 25.6364ZM39.9731 22.0705C41.9317 23.9935 44.3188 24.955 47.1343 24.955C49.8274 24.955 52.1533 23.9935 54.1119 22.0705C56.0706 20.1475 57.0499 17.8038 57.0499 15.0394C57.0499 12.2751 56.0706 9.9314 54.1119 8.00838C52.1533 6.08535 49.8274 5.12384 47.1343 5.12384C44.3188 5.12384 41.9317 6.08535 39.9731 8.00838C38.1368 9.9314 37.2187 12.2751 37.2187 15.0394C37.2187 17.8038 38.1368 20.1475 39.9731 22.0705Z" fill="#354A9B"/>
<path d="M79 30C74.7407 30 71.1296 28.5455 68.1667 25.6364C65.3889 22.7273 64 19.1818 64 15C64 10.8182 65.3889 7.27273 68.1667 4.36364C71.1296 1.45455 74.7407 0 79 0C83.0741 0 86.5926 1.45455 89.5556 4.36364C92.5185 7.27273 94 10.8182 94 15C94 19.1818 92.5185 22.7273 89.5556 25.6364C86.5926 28.5455 83.0741 30 79 30Z" fill="#BC402F"/>
</svg>
