<svg width="604" height="537" viewBox="0 0 604 537" fill="none" xmlns="http://www.w3.org/2000/svg">
<path d="M0 257C0 201.772 44.7715 157 100 157H477C532.228 157 577 201.772 577 257V532H100C44.7715 532 0 487.228 0 432V257Z" fill="#F2D7CB"/>
<path d="M180 100C180 44.7715 224.772 0 280 0H480C535.228 0 580 44.7715 580 100V532H280C224.772 532 180 487.228 180 432V100Z" fill="#F2D7CB"/>
<path fill-rule="evenodd" clip-rule="evenodd" d="M342.143 237.072C366.422 260.91 396.013 272.829 430.915 272.829C464.299 272.829 493.131 260.91 517.41 237.072C541.689 213.234 553.829 184.182 553.829 149.915C553.829 115.647 541.689 86.5949 517.41 62.757C493.131 38.919 464.299 27 430.915 27C396.013 27 366.422 38.919 342.143 62.757C319.381 86.5949 308 115.647 308 149.915C308 184.182 319.381 213.234 342.143 237.072ZM373.334 207.852C389.383 223.61 408.944 231.489 432.015 231.489C454.083 231.489 473.142 223.61 489.192 207.852C505.242 192.094 513.266 172.89 513.266 150.238C513.266 127.586 505.242 108.381 489.192 92.6231C473.142 76.8652 454.083 68.9863 432.015 68.9863C408.944 68.9863 389.383 76.8652 373.334 92.6231C358.287 108.381 350.764 127.586 350.764 150.238C350.764 172.89 358.287 192.094 373.334 207.852Z" fill="#354A9B"/>
<path d="M176.856 486.713C136.292 486.713 101.901 472.86 73.6823 445.155C47.2274 417.449 34 383.683 34 343.856C34 304.03 47.2274 270.264 73.6823 242.558C101.901 214.853 136.292 201 176.856 201C215.657 201 249.166 214.853 277.385 242.558C305.604 270.264 319.713 304.03 319.713 343.856C319.713 383.683 305.604 417.449 277.385 445.155C249.166 472.86 215.657 486.713 176.856 486.713Z" fill="#BC402F"/>
<path d="M470.808 419.834L407.796 384.523L424.38 358.753L480.102 405.894L473.797 332.735L505.034 334.386L497.254 406.198L556.841 367.942L571.088 395.572L505.802 422.777L569.002 457.453L551.636 484.702L495.914 437.561L502.813 509.875L471.576 508.224L479.137 435.987L419.331 473.819L404.865 445.763L470.808 419.834Z" fill="#EAA738"/>
<path d="M291.493 388.738C255.137 392.766 222.399 366.558 218.372 330.202L203.649 197.303C199.622 160.946 225.83 128.209 262.186 124.181L313.224 118.527L313.237 118.526L366.218 113.663C402.236 110.357 434.245 136.557 438.122 172.518L452.349 304.477C456.262 340.77 430.072 373.387 393.791 377.406L291.493 388.738Z" fill="#20204B" stroke="#20204B" stroke-width="2.70335"/>
<path d="M299.195 387.27C289.151 388.383 280.107 381.143 278.994 371.099C277.882 361.055 285.122 352.01 295.166 350.898L388.921 340.512L388.925 340.511L483.271 330.334C493.359 329.245 502.382 336.634 503.305 346.738C504.205 356.591 497.052 365.352 487.218 366.441L299.195 387.27Z" fill="#20204B" stroke="#20204B" stroke-width="2.70335"/>
<path d="M267.789 365.87C258.504 366.898 250.143 360.205 249.114 350.92C248.086 341.635 254.779 333.274 264.064 332.246L364.128 321.161L364.132 321.16L464.784 310.271C474.125 309.26 482.476 316.113 483.309 325.471C484.118 334.564 477.511 342.637 468.437 343.642L267.789 365.87Z" fill="#20204B" stroke="#20204B" stroke-width="2.70335"/>
<path d="M286.276 322.679C253.629 326.296 224.232 302.762 220.616 270.115L215.294 222.074C211.677 189.427 235.211 160.03 267.858 156.413L281.079 154.948C288.696 154.105 296.404 154.741 303.779 156.822L360.23 172.752C372.985 177.56 381.966 189.121 383.467 202.673L388.873 251.476C392.49 284.123 368.956 313.52 336.309 317.136L286.276 322.679Z" fill="#F9F2ED" stroke="#F9F2ED" stroke-width="2.70335"/>
<ellipse cx="333.872" cy="167.443" rx="75.6938" ry="19.0028" transform="rotate(22.0121 333.872 167.443)" fill="#20204B"/>
<path d="M233.132 255.124C230.373 255.429 227.888 253.44 227.583 250.681C226.502 240.92 233.538 232.13 243.299 231.049L261.952 228.983C271.713 227.902 280.503 234.939 281.584 244.7C281.89 247.459 279.901 249.944 277.142 250.249L233.132 255.124Z" stroke="#20204B" stroke-width="2.70335"/>
<path d="M247.84 253.764L247.104 247.122C246.362 240.417 251.195 234.379 257.9 233.637C264.605 232.894 270.642 237.727 271.385 244.432L272.12 251.075L247.84 253.764Z" fill="#20204B"/>
<line x1="260.889" y1="228.208" x2="263.041" y2="221.023" stroke="#20204B" stroke-width="2.70335"/>
<line x1="238.759" y1="230.685" x2="235.022" y2="224.182" stroke="#20204B" stroke-width="2.70335"/>
<line x1="250.25" y1="229.183" x2="249.425" y2="221.728" stroke="#20204B" stroke-width="2.70335"/>
<path d="M376.57 264.69L372.32 226.314L398.722 223.39C409.319 222.216 418.862 229.855 420.035 240.453C421.209 251.05 413.57 260.592 402.972 261.766L376.57 264.69Z" fill="#F9F2ED" stroke="#F9F2ED" stroke-width="2.70335"/>
<path d="M315.584 245.696C312.825 246.001 310.34 244.012 310.035 241.253C308.954 231.492 315.99 222.702 325.752 221.621L344.404 219.556C354.166 218.474 362.955 225.511 364.036 235.272C364.342 238.031 362.353 240.516 359.594 240.821L315.584 245.696Z" stroke="#20204B" stroke-width="2.70335"/>
<path d="M320.83 245.654L320.095 239.011C319.352 232.307 324.186 226.269 330.89 225.527C337.595 224.784 343.633 229.617 344.375 236.322L345.111 242.965L320.83 245.654Z" fill="#20204B"/>
<line x1="343.341" y1="218.781" x2="345.493" y2="211.595" stroke="#20204B" stroke-width="2.70335"/>
<line x1="321.211" y1="221.257" x2="317.474" y2="214.755" stroke="#20204B" stroke-width="2.70335"/>
<line x1="332.703" y1="219.756" x2="331.877" y2="212.301" stroke="#20204B" stroke-width="2.70335"/>
<rect x="291.637" y="296.081" width="31.5409" height="28.4414" rx="12.1651" transform="rotate(-96.32 291.637 296.081)" stroke="#20204B" stroke-width="2.70335"/>
<rect x="284.448" y="285.861" width="23.5374" height="41.3423" transform="rotate(-96.32 284.448 285.861)" fill="#F9F2ED"/>
<rect x="263.4" y="175.635" width="31.5409" height="28.4414" rx="12.1651" transform="rotate(83.5488 263.4 175.635)" stroke="#20204B" stroke-width="2.70335"/>
<rect x="270.612" y="185.838" width="23.5374" height="41.3423" transform="rotate(83.5488 270.612 185.838)" fill="#F9F2ED"/>
<path d="M381.056 473.741C387.118 470.723 385.467 461.656 378.73 460.968L247.614 447.574C246.566 447.467 245.508 447.607 244.523 447.982L155.636 481.823C149.003 484.349 150.248 494.083 157.303 494.858L303.927 510.945C305.215 511.087 306.516 510.855 307.676 510.277L381.056 473.741Z" fill="#20204B"/>
<circle cx="348.487" cy="274.194" r="2.70335" fill="#20204B"/>
<rect x="338.23" y="343.635" width="40.0921" height="44.6701" transform="rotate(-110.55 338.23 343.635)" fill="#F9F2ED"/>
<path d="M314 426.527C324.416 424.421 364.505 418.535 364.505 418.535L372.075 462.625C372.075 462.625 365.431 463.775 359.276 464.604C353.121 465.432 351.055 465.435 344.858 465.442C338.661 465.449 340.025 477.099 330.454 484.664C320.884 492.228 321.414 478.148 321.414 478.148C321.414 478.148 316.557 483.815 313.163 482.862C309.87 481.938 308.353 474.523 308.353 474.523L297.583 472.698L294.06 466.809L285.784 465.87L288.93 456.62C288.93 456.62 303.584 428.633 314 426.527Z" fill="#F9F2ED"/>
<rect x="357.71" y="454.372" width="122.621" height="91.0662" transform="rotate(-110.55 357.71 454.372)" fill="#F9F2ED"/>
<path d="M458.359 443.798L379.427 312.201C400.583 299.511 428.021 306.375 440.711 327.531L496.667 420.821L458.359 443.798Z" fill="#F9F2ED"/>
<path d="M368.343 432.714L332.168 326.909C332.168 326.909 317.176 327.43 307.857 329.511C295.372 332.299 289.395 346.085 293.25 358.282L321.451 447.531L368.343 432.714Z" fill="#F9F2ED"/>
<path d="M356.598 464.861L481.716 446.92C494.597 445.073 501.839 431.105 495.926 419.514C488.27 404.504 471.634 396.339 455.077 399.466L348.459 419.6L356.598 464.861Z" fill="#F9F2ED"/>
<path d="M349.163 421.189C349.163 421.189 328.212 424.906 313.343 426.933C306.848 427.819 305.909 431.664 301.854 437.071C297.546 442.815 291.041 451.939 291.041 451.939" stroke="#20204B" stroke-width="2.70335"/>
<line x1="332.11" y1="458.654" x2="319.945" y2="481.633" stroke="#20204B" stroke-width="2.70335"/>
<line x1="319.946" y1="451.893" x2="306.43" y2="477.575" stroke="#20204B" stroke-width="2.70335"/>
<line x1="307.78" y1="446.489" x2="295.615" y2="469.468" stroke="#20204B" stroke-width="2.70335"/>
<rect x="374.169" y="314.798" width="7.37017" height="3.19425" transform="rotate(-26.32 374.169 314.798)" fill="#F9F2ED"/>
<path fill-rule="evenodd" clip-rule="evenodd" d="M380.251 415.444C379.184 416.273 379.183 416.273 379.183 416.273L379.184 416.273L379.185 416.274L379.191 416.282L379.215 416.313C379.236 416.341 379.269 416.384 379.312 416.44C379.398 416.553 379.526 416.721 379.69 416.94C380.018 417.378 380.491 418.019 381.068 418.826C382.224 420.439 383.793 422.712 385.449 425.346C388.783 430.651 392.378 437.283 393.727 442.915C394.552 446.359 394.901 450.947 395.038 454.736C395.105 456.585 395.121 458.222 395.12 459.407L397.823 458.99C397.82 457.825 397.801 456.318 397.74 454.638C397.602 450.818 397.247 446.005 396.356 442.285C394.897 436.197 391.097 429.251 387.738 423.907C386.047 421.217 384.445 418.898 383.266 417.252C382.677 416.428 382.192 415.772 381.854 415.32C381.684 415.094 381.552 414.919 381.461 414.8C381.416 414.741 381.381 414.695 381.357 414.664L381.329 414.628L381.322 414.619L381.32 414.616L381.319 414.615C381.319 414.615 381.319 414.615 380.251 415.444Z" fill="#20204B"/>
<path d="M348.213 421.391L442.404 403.666" stroke="#20204B" stroke-width="2.70335"/>
<path d="M98.369 387.98C96.4242 383.417 99.8946 378.383 104.851 378.577L265.337 384.875C268.116 384.984 270.544 386.785 271.456 389.412L308.016 494.734C309.616 499.344 305.951 504.08 301.087 503.686L146.279 491.176C143.776 490.974 141.591 489.4 140.606 487.089L98.369 387.98Z" fill="#F9F2ED"/>
<path d="M87.961 394.966C85.9324 390.388 89.4129 385.271 94.416 385.475L260.824 392.28C263.568 392.392 265.97 394.153 266.904 396.735L305.039 502.205C306.711 506.831 303.04 511.637 298.137 511.239L137.576 498.221C135.107 498.021 132.946 496.487 131.943 494.222L87.961 394.966Z" fill="#20204B"/>
<path fill-rule="evenodd" clip-rule="evenodd" d="M319.431 324.562L322.74 341.4C324.18 348.725 331.23 353.243 338.487 351.491L374.68 342.755C381.936 341.004 386.652 333.646 385.212 326.321L381.902 309.483L379.274 310.117L382.584 326.955C383.736 332.815 379.963 338.701 374.158 340.103L337.965 348.839C332.16 350.24 326.52 346.625 325.368 340.765L322.059 323.928L319.431 324.562Z" fill="#20204B"/>
<line x1="325.42" y1="376.44" x2="342.667" y2="421.684" stroke="#20204B" stroke-width="2.70335"/>
<line x1="412.667" y1="360.684" x2="429.914" y2="405.929" stroke="#20204B" stroke-width="2.70335"/>
<path d="M293.576 448.976L304.325 479.874" stroke="#20204B" stroke-width="2.70276"/>
</svg>
