<svg width="325" height="228" viewBox="0 0 325 228" fill="none" xmlns="http://www.w3.org/2000/svg">
<circle cx="217.342" cy="92.6579" r="91.0604" fill="#F9F2ED" stroke="#BC402F" stroke-width="3.1951"/>
<line x1="215.744" y1="183.718" x2="215.744" y2="1.59753" stroke="#BC402F" stroke-width="3.1951"/>
<line x1="126.282" y1="91.0604" x2="308.402" y2="91.0604" stroke="#BC402F" stroke-width="3.1951"/>
<line x1="151.823" y1="155.918" x2="280.602" y2="27.1389" stroke="#BC402F" stroke-width="3.1951"/>
<line x1="154.082" y1="27.1387" x2="282.861" y2="155.918" stroke="#BC402F" stroke-width="3.1951"/>
<circle cx="218.141" cy="93.4567" r="47.1277" fill="#F9F2ED" stroke="#BC402F" stroke-width="3.1951"/>
<g clip-path="url(#clip0_90_82)">
<path d="M295.132 123.785L285.64 133.277L311.135 158.773L320.627 149.28C325.53 144.378 325.53 136.435 320.627 131.532L312.9 123.785C307.997 118.882 300.055 118.882 295.152 123.785H295.132ZM281.208 137.71L235.493 183.444C233.453 185.484 231.963 188.014 231.139 190.779L224.197 214.372C223.706 216.039 224.157 217.823 225.373 219.039C226.589 220.255 228.374 220.706 230.021 220.235L253.614 213.293C256.379 212.469 258.909 210.979 260.949 208.939L306.703 163.205L281.208 137.71Z" fill="#BC402F"/>
<path d="M312.042 157.836L306.221 163.657L280.754 138.191L285.848 133.097H286.575L312.042 157.836Z" fill="#F9F2ED"/>
</g>
<path fill-rule="evenodd" clip-rule="evenodd" d="M23.641 20.0683C23.641 17.5113 24.6567 15.0591 26.4648 13.2511C28.2728 11.4431 30.725 10.4273 33.282 10.4273H65.4186C67.9755 10.4273 70.4278 11.4431 72.2358 13.2511C74.0438 15.0591 75.0596 17.5113 75.0596 20.0683H78.2732C79.9779 20.0683 81.6127 20.7455 82.818 21.9508C84.0234 23.1562 84.7006 24.791 84.7006 26.4956V30.9305C84.7004 34.9154 83.2195 38.7581 80.5453 41.7125C77.8712 44.667 74.1946 46.5223 70.2294 46.9184L52.5639 48.6859V48.9912C54.2686 48.9912 55.9034 49.6684 57.1087 50.8738C58.3141 52.0791 58.9913 53.7139 58.9913 55.4186V68.2732C58.9913 69.9778 58.3141 71.6127 57.1087 72.818C55.9034 74.0234 54.2686 74.7005 52.5639 74.7005H46.1366C44.432 74.7005 42.7972 74.0234 41.5918 72.818C40.3865 71.6127 39.7093 69.9778 39.7093 68.2732V55.4186C39.7093 53.7139 40.3865 52.0791 41.5918 50.8738C42.7972 49.6684 44.432 48.9912 46.1366 48.9912V48.6859C46.1367 47.0921 46.729 45.5551 47.7985 44.3733C48.868 43.1916 50.3385 42.4494 51.9244 42.2908L69.5931 40.5232C71.9718 40.285 74.1771 39.1715 75.781 37.3989C77.385 35.6263 78.2732 33.321 78.2732 30.9305V26.4956H75.0596C75.0596 29.0526 74.0438 31.5048 72.2358 33.3128C70.4278 35.1209 67.9755 36.1366 65.4186 36.1366H33.282C30.725 36.1366 28.2728 35.1209 26.4648 33.3128C24.6567 31.5048 23.641 29.0526 23.641 26.4956V20.0683ZM52.5639 55.4186H46.1366V68.2732H52.5639V55.4186ZM33.282 16.8546C32.4297 16.8546 31.6123 17.1932 31.0096 17.7959C30.4069 18.3986 30.0683 19.216 30.0683 20.0683V26.4956C30.0683 27.3479 30.4069 28.1653 31.0096 28.768C31.6123 29.3707 32.4297 29.7093 33.282 29.7093H65.4186C66.2709 29.7093 67.0883 29.3707 67.691 28.768C68.2937 28.1653 68.6323 27.3479 68.6323 26.4956V20.0683C68.6323 19.216 68.2937 18.3986 67.691 17.7959C67.0883 17.1932 66.2709 16.8546 65.4186 16.8546H33.282Z" fill="#BC402F"/>
<path d="M54.1066 90.769L38.8417 106.034L23.6411 121.588C22.444 122.792 21.7721 124.421 21.7721 126.119C21.7721 127.817 22.444 129.446 23.6411 130.65L37.4599 144.469C38.0584 145.063 38.8664 145.398 39.7094 145.401H78.2734V138.974H55.7777L78.9804 115.771C79.578 115.174 80.052 114.465 80.3755 113.685C80.6989 112.905 80.8654 112.069 80.8654 111.224C80.8654 110.379 80.6989 109.543 80.3755 108.763C80.052 107.982 79.578 107.274 78.9804 106.677L63.2013 90.769C62.6044 90.1714 61.8955 89.6973 61.1152 89.3738C60.335 89.0504 59.4986 88.8839 58.654 88.8839C57.8093 88.8839 56.9729 89.0504 56.1927 89.3738C55.4124 89.6973 54.7035 90.1714 54.1066 90.769ZM41.027 138.974L28.1724 126.119L43.4373 110.565L45.8154 108.155L61.723 124.062L47.0687 138.717L46.8438 138.974H41.027Z" fill="#BC402F"/>
<path d="M182.896 224.951L183.041 226.399L182.896 224.951ZM80.806 180.379L79.367 180.162L80.806 180.379ZM115.731 155.694L115.718 157.149L115.731 155.694ZM62.8955 218.094L62.677 219.532L62.8955 218.094ZM3.35717 175.054C3.06712 174.305 2.22436 173.932 1.47482 174.222C0.725271 174.512 0.352778 175.355 0.642829 176.105L3.35717 175.054ZM241.103 201.176C223.301 215.113 208.096 220.95 182.75 223.503L183.041 226.399C208.867 223.797 224.61 217.785 242.897 203.468L241.103 201.176ZM182.75 223.503C160.112 225.783 133.469 223.561 113.22 216.387C103.092 212.799 94.68 208.014 89.1445 202.043C83.6522 196.118 80.9754 189.021 82.245 180.596L79.367 180.162C77.95 189.566 80.9904 197.528 87.0101 204.022C92.9868 210.468 101.882 215.459 112.248 219.131C132.985 226.477 160.073 228.712 183.041 226.399L182.75 223.503ZM82.245 180.596C83.322 173.448 86.8999 167.581 92.5506 163.501C98.2193 159.409 106.06 157.058 115.718 157.149L115.745 154.239C105.614 154.143 97.1269 156.608 90.847 161.141C84.5491 165.688 80.5583 172.256 79.367 180.162L82.245 180.596ZM115.718 157.149C125.215 157.239 133.865 160.104 140.105 164.696C146.343 169.286 150.097 175.527 150.097 182.437H153.007C153.007 174.385 148.619 167.348 141.83 162.352C135.044 157.359 125.784 154.333 115.745 154.239L115.718 157.149ZM150.097 182.437C150.097 196.188 138.367 206.221 121.137 212.13C104.016 218.002 82.0913 219.537 63.1141 216.655L62.677 219.532C82.0603 222.477 104.464 220.925 122.081 214.884C139.589 208.879 153.007 198.17 153.007 182.437H150.097ZM63.1141 216.655C31.9066 211.915 12.2609 198.063 3.35717 175.054L0.642829 176.105C10.0248 200.349 30.7503 214.683 62.677 219.532L63.1141 216.655Z" fill="#BC402F"/>
<defs>
<clipPath id="clip0_90_82">
<rect width="100.412" height="100.412" fill="white" transform="translate(224 120)"/>
</clipPath>
</defs>
</svg>
