<svg width="335" height="230" viewBox="0 0 335 230" fill="none" xmlns="http://www.w3.org/2000/svg">
<path d="M326.264 28.4839V100.37L295.499 86.9941L295.228 86.8759H294.932H199.511C184.566 86.8759 172.451 74.7609 172.451 59.8162V28.4839C172.451 13.5393 184.566 1.4242 199.51 1.4242H299.204C314.149 1.4242 326.264 13.5392 326.264 28.4839Z" fill="#F9F2ED" stroke="#EAA738" stroke-width="2.84839"/>
<rect x="40.0006" y="38.4533" width="183.721" height="153.813" fill="#F9F2ED" stroke="#EAA738" stroke-width="2.84839"/>
<rect x="28.607" y="27.0597" width="21.3629" height="21.3629" rx="2.84839" fill="#EAA738"/>
<rect x="215.177" y="27.0597" width="21.3629" height="21.3629" rx="2.84839" fill="#EAA738"/>
<rect x="215.177" y="183.721" width="21.3629" height="21.3629" rx="2.84839" fill="#EAA738"/>
<path d="M125.441 111.781L110.16 88.6592L120.347 82.7869L131.061 108.662L141.775 82.6034L152.138 88.6592L136.857 111.781L163.906 109.212V121.14L136.857 118.938L152.314 141.877L141.6 148.116L130.886 122.242L120.523 148.116L110.16 142.061L125.441 118.755L98.3926 121.14V109.029L125.441 111.781Z" fill="#EAA738"/>
<path d="M60.3463 163.559L19.552 177.027C17.028 177.688 15.0491 180.004 14.7729 182.789L14.7443 183.308C14.719 184.497 15.0107 185.671 15.5894 186.71C16.168 187.749 17.0129 188.614 18.037 189.219L18.2795 189.346L24.7462 193.361L12.9037 206.155C12.3421 206.762 11.9055 207.473 11.6188 208.248C11.3321 209.023 11.201 209.847 11.2329 210.673C11.2648 211.499 11.4591 212.311 11.8048 213.062C12.1504 213.812 12.6406 214.488 13.2473 215.049L16.5549 218.11C17.7807 219.245 19.4031 219.846 21.0699 219.782L21.6225 219.736C23.0883 219.548 24.4415 218.851 25.4455 217.767L37.2822 204.982L41.8241 211.212C43.0804 213.375 45.8499 214.651 48.6058 214.158C49.9498 213.918 51.1885 213.273 52.1557 212.31C53.123 211.347 53.7726 210.111 54.0177 208.767L64.2602 167.176C64.3898 166.647 64.3755 166.094 64.2186 165.573C64.0617 165.052 63.768 164.582 63.368 164.213C62.9681 163.844 62.4766 163.589 61.9446 163.475C61.4126 163.36 60.8597 163.391 60.3434 163.562L60.3463 163.559Z" fill="#EAA738"/>
<line x1="131.149" y1="24.2113" x2="131.149" y2="39.8775" stroke="#EAA738" stroke-width="2.84839"/>
<circle cx="131.861" cy="16.3782" r="9.25727" stroke="#EAA738" stroke-width="2.84839"/>
<path d="M244.668 110.381C246.016 109.372 247.553 108.632 249.188 108.226L249.19 108.213C250.827 107.795 252.529 107.713 254.198 107.953C255.966 108.152 257.675 108.709 259.22 109.59C260.766 110.471 262.116 111.658 263.187 113.078L267.108 118.32L269.046 116.929C270.638 115.75 272.632 115.248 274.593 115.53C276.554 115.813 278.324 116.858 279.518 118.439L282.784 122.805C283.963 124.398 284.466 126.391 284.183 128.352C283.9 130.313 282.855 132.083 281.274 133.277L279.364 134.706L279.349 134.717L306.993 171.675C307.253 172.023 307.441 172.419 307.548 172.841C307.654 173.262 307.677 173.7 307.614 174.13L307.112 177.612L309.511 186.55C309.872 187.863 309.829 189.254 309.389 190.542C308.948 191.83 308.129 192.955 307.04 193.771C305.95 194.588 304.64 195.057 303.28 195.118C301.92 195.179 300.573 194.829 299.414 194.114L291.513 189.28L288.031 188.778C287.164 188.653 286.383 188.189 285.858 187.489L258.149 150.522L256.247 151.944C254.655 153.125 252.661 153.629 250.7 153.346C248.738 153.063 246.968 152.016 245.775 150.434L242.503 146.021C241.622 144.832 241.111 143.41 241.033 141.933C240.955 140.455 241.313 138.988 242.064 137.713C242.573 136.864 243.223 136.14 244.013 135.542L245.918 134.106L241.996 128.864C239.956 126.131 239.081 122.702 239.563 119.326C239.764 117.568 240.32 115.868 241.196 114.331C242.072 112.793 243.258 111.45 244.668 110.381ZM263.472 146.552L290.295 182.389L293.096 182.793C293.546 182.855 293.979 183.008 294.367 183.244L302.833 188.473L300.523 178.686C300.407 178.247 300.382 177.789 300.45 177.339L300.854 174.538L274.028 138.68L263.472 146.552Z" fill="#EAA738"/>
</svg>
