<svg width="30" height="30" viewBox="0 0 30 30" fill="none" xmlns="http://www.w3.org/2000/svg">
<path fill-rule="evenodd" clip-rule="evenodd" d="M4.16667 25.6364C7.12963 28.5455 10.7407 30 15 30C19.0741 30 22.5926 28.5455 25.5556 25.6364C28.5185 22.7273 30 19.1818 30 15C30 10.8182 28.5185 7.27273 25.5556 4.36364C22.5926 1.45455 19.0741 0 15 0C10.7407 0 7.12963 1.45455 4.16667 4.36364C1.38889 7.27273 0 10.8182 0 15C0 19.1818 1.38889 22.7273 4.16667 25.6364ZM7.97306 22.0705C9.93169 23.9935 12.3188 24.955 15.1343 24.955C17.8274 24.955 20.1533 23.9935 22.1119 22.0705C24.0706 20.1475 25.0499 17.8038 25.0499 15.0394C25.0499 12.2751 24.0706 9.9314 22.1119 8.00838C20.1533 6.08535 17.8274 5.12384 15.1343 5.12384C12.3188 5.12384 9.93169 6.08535 7.97306 8.00838C6.13684 9.9314 5.21873 12.2751 5.21873 15.0394C5.21873 17.8038 6.13684 20.1475 7.97306 22.0705Z" fill="#20204B"/>
</svg>
